<svg width="24" height="24" viewBox="0 0 24 24" fill="none" xmlns="http://www.w3.org/2000/svg">
<path d="M16.3022 8.18517C16.5892 7.909 17.0539 7.909 17.3408 8.18517L20.7848 11.5002C20.9225 11.6328 21 11.8124 21 12C21 12.1876 20.9225 12.3672 20.7848 12.4998L17.3408 15.8148C17.0539 16.091 16.5892 16.091 16.3022 15.8148C16.0153 15.5386 16.0153 15.0913 16.3022 14.8152L19.2269 12L16.3022 9.18485C16.0153 8.90867 16.0153 8.46135 16.3022 8.18517Z" fill="#333333"/>
<path d="M18.8879 11.293C19.2937 11.293 19.6224 11.6094 19.6224 12C19.6224 12.3906 19.2937 12.707 18.8879 12.707H10.6224C10.2167 12.707 9.88789 12.3906 9.88789 12C9.88789 11.6094 10.2167 11.293 10.6224 11.293H18.8879Z" fill="#333333"/>
<path d="M12.643 7.35902V6.03302C12.643 5.69127 12.355 5.41405 12 5.41405H5.11211C4.75706 5.41405 4.46906 5.69127 4.46906 6.03302V17.967C4.46906 18.3087 4.75706 18.5859 5.11211 18.5859H12C12.355 18.5859 12.643 18.3087 12.643 17.967V16.641C12.643 16.2504 12.9718 15.934 13.3776 15.934C13.7833 15.934 14.1121 16.2504 14.1121 16.641V17.967C14.1121 19.0899 13.1666 20 12 20H5.11211C3.94552 20 3 19.0899 3 17.967V6.03302C3 4.91012 3.94552 4 5.11211 4H12C13.1666 4 14.1121 4.91012 14.1121 6.03302V7.35902C14.1121 7.74959 13.7833 8.06604 13.3776 8.06604C12.9718 8.06604 12.643 7.74959 12.643 7.35902Z" fill="#333333"/>
</svg>
