<svg width="24" height="24" viewBox="0 0 24 24" fill="none" xmlns="http://www.w3.org/2000/svg">
<path d="M16.068 16.0372C13.2622 18.8384 9.85441 21 7.06799 21C5.81558 21 4.71851 20.5638 3.83494 19.5944C3.32046 19.0226 3 18.3537 3 17.6947C3 17.21 3.1845 16.7447 3.64083 16.4152L6.62136 14.3021C7.06799 13.9919 7.4563 13.8368 7.80583 13.8368C8.24277 13.8368 8.64077 14.0888 9.08741 14.525L9.7767 15.2036C9.88349 15.3102 10.0194 15.3587 10.1456 15.3587C10.2913 15.3587 10.4369 15.3004 10.534 15.252C11.136 14.9321 12.165 14.05 13.1262 13.1002C14.0777 12.1502 14.9612 11.1228 15.2719 10.5218C15.3204 10.4152 15.3786 10.2795 15.3786 10.1341C15.3786 10.0081 15.3398 9.88206 15.233 9.77544L14.5437 9.06785C14.1165 8.62196 13.8544 8.23425 13.8544 7.78836C13.8544 7.43941 14.0097 7.06139 14.3398 6.60581L16.4272 3.66882C16.7573 3.20355 17.2427 3 17.767 3C18.4078 3 19.068 3.29079 19.6408 3.84329C20.5825 4.74474 21 5.85945 21 7.09046C21 9.87236 18.8738 13.2456 16.068 16.0372Z" fill="white"/>
</svg>
